<mxfile host="app.diagrams.net" modified="2023-09-11T11:35:46.510Z" agent="Mozilla/5.0 (Windows NT 10.0; Win64; x64) AppleWebKit/537.36 (KHTML, like Gecko) Chrome/115.0.0.0 Safari/537.36 OPR/101.0.0.0" etag="lsXgdLAGIikuOUdp9xiR" version="21.7.4" type="github">
  <diagram name="PÃ¡gina-1" id="ls6bh_dEbqz2-I-s4X_q">
    <mxGraphModel dx="820" dy="441" grid="1" gridSize="10" guides="1" tooltips="1" connect="1" arrows="1" fold="1" page="1" pageScale="1" pageWidth="827" pageHeight="1169" math="0" shadow="0">
      <root>
        <mxCell id="0" />
        <mxCell id="1" parent="0" />
      </root>
    </mxGraphModel>
  </diagram>
</mxfile>
